<svg width="20" height="20" viewBox="0 0 20 20" fill="none" xmlns="http://www.w3.org/2000/svg">
<path d="M18.9132 3.24219C18.8282 3.11034 18.7115 3.00192 18.5738 2.92685C18.4361 2.85178 18.2818 2.81246 18.1249 2.8125H11.8749C11.6953 2.81233 11.5193 2.86379 11.3681 2.96074C11.2168 3.05769 11.0966 3.19606 11.0218 3.35938L10.4187 4.6875H2.18741C2.00581 4.68752 1.82813 4.74028 1.67595 4.83936C1.52377 4.93845 1.40365 5.07961 1.33017 5.24567C1.25669 5.41174 1.23303 5.59557 1.26205 5.77483C1.29107 5.9541 1.37154 6.12107 1.49366 6.25547L4.04522 9.0625L1.49366 11.8695C1.37154 12.0039 1.29107 12.1709 1.26205 12.3502C1.23303 12.5294 1.25669 12.7133 1.33017 12.8793C1.40365 13.0454 1.52377 13.1865 1.67595 13.2856C1.82813 13.3847 2.00581 13.4375 2.18741 13.4375H7.89756C8.07709 13.4375 8.25284 13.386 8.40393 13.2891C8.55503 13.1921 8.67511 13.0538 8.74991 12.8906L9.35225 11.5625H13.5421L11.0202 17.1094C10.9166 17.3358 10.9072 17.5942 10.9941 17.8276C11.081 18.061 11.257 18.2503 11.4835 18.3539C11.71 18.4575 11.9683 18.4669 12.2017 18.38C12.4351 18.2931 12.6244 18.1171 12.728 17.8906L18.978 4.14063C19.0435 3.99747 19.0719 3.84013 19.0606 3.68311C19.0493 3.52609 18.9986 3.37445 18.9132 3.24219ZM4.30694 11.5625L6.00616 9.69297C6.16295 9.52042 6.24982 9.29564 6.24982 9.0625C6.24982 8.82936 6.16295 8.60458 6.00616 8.43203L4.30694 6.5625H9.56631L7.29366 11.5625H4.30694ZM14.396 9.6875H10.2062L12.4788 4.6875H16.6687L14.396 9.6875Z" fill="#D6D6D6"></path>
</svg>
