<svg width="20" height="20" viewBox="0 0 20 20" fill="none" xmlns="http://www.w3.org/2000/svg">
<path d="M19.0165 4.84764C18.9682 4.64766 18.8808 4.45922 18.7593 4.29321C18.6379 4.1272 18.4847 3.98691 18.3086 3.88045C15.802 2.36409 12.9281 1.5625 9.99849 1.5625C7.06884 1.5625 4.19503 2.36409 1.68834 3.88045C1.513 3.98704 1.36037 4.12713 1.23917 4.29271C1.11797 4.45829 1.03057 4.64612 0.981969 4.84548C0.933363 5.04483 0.9245 5.25181 0.955887 5.4546C0.987274 5.65738 1.0583 5.85199 1.1649 6.02733L8.6649 18.3133C8.80417 18.5429 9.00027 18.7327 9.23428 18.8644C9.46828 18.9962 9.73229 19.0654 10.0008 19.0654C10.2694 19.0654 10.5334 18.9962 10.7674 18.8644C11.0014 18.7327 11.1975 18.5429 11.3368 18.3133L18.8368 6.02733C18.9433 5.85235 19.014 5.65798 19.0448 5.45549C19.0757 5.25299 19.066 5.04638 19.0165 4.84764ZM9.99849 3.43748C12.4786 3.43531 14.9157 4.08573 17.0649 5.32342L16.4047 6.40623C14.4566 5.28285 12.2473 4.69149 9.99849 4.69149C7.74967 4.69149 5.54038 5.28285 3.59224 6.40623L2.93209 5.32342C5.08131 4.08573 7.51836 3.43531 9.99849 3.43748ZM6.55162 11.2547L4.9313 8.59842C5.16958 8.48068 5.43395 8.42567 5.69942 8.43858C5.96488 8.4515 6.22267 8.53191 6.44839 8.67223C6.67411 8.81254 6.86031 9.00811 6.98938 9.24045C7.11845 9.47278 7.18612 9.7342 7.18599 9.99998C7.1849 10.244 7.12701 10.4844 7.0169 10.7022C6.90679 10.92 6.74749 11.1091 6.55162 11.2547ZM9.99849 16.9031L7.53287 12.8633C8.03349 12.5297 8.4378 12.0706 8.7054 11.5318C8.97301 10.993 9.09453 10.3934 9.05784 9.79298C9.02115 9.19253 8.82752 8.61221 8.4963 8.11003C8.16509 7.60784 7.70788 7.20137 7.17037 6.93123C9.95733 6.18986 12.9241 6.57548 15.429 8.00467L14.7297 9.14998C13.9557 8.73726 13.0531 8.6361 12.2068 8.86722C11.3606 9.09834 10.6347 9.64426 10.1779 10.3932C9.72103 11.1421 9.5678 12.0373 9.74956 12.8955C9.93132 13.7537 10.4343 14.5099 11.1555 15.0094L9.99849 16.9031ZM11.561 12.1875C11.5611 11.9281 11.6258 11.6728 11.7493 11.4447C11.8727 11.2166 12.051 11.0228 12.268 10.8808C12.4851 10.7388 12.734 10.653 12.9925 10.6313C13.251 10.6095 13.5108 10.6525 13.7485 10.7562L12.136 13.3992C11.9562 13.2526 11.8113 13.0678 11.7119 12.8582C11.6124 12.6486 11.5609 12.4195 11.561 12.1875Z" fill="#D6D6D6">
</path>
</svg>
