<svg width="20" height="20" viewBox="0 0 20 20" fill="none" xmlns="http://www.w3.org/2000/svg">
<path d="M8.43717 10.6247C8.43717 10.8719 8.36386 11.1136 8.22651 11.3192C8.08915 11.5247 7.89393 11.685 7.66552 11.7796C7.43712 11.8742 7.18578 11.8989 6.94331 11.8507C6.70083 11.8025 6.4781 11.6834 6.30329 11.5086C6.12847 11.3338 6.00942 11.1111 5.96119 10.8686C5.91296 10.6261 5.93771 10.3748 6.03232 10.1464C6.12693 9.91795 6.28714 9.72273 6.49271 9.58537C6.69827 9.44802 6.93994 9.37471 7.18717 9.37471C7.51869 9.37471 7.83663 9.50641 8.07105 9.74083C8.30547 9.97525 8.43717 10.2932 8.43717 10.6247ZM12.8122 9.37471C12.5649 9.37471 12.3233 9.44802 12.1177 9.58537C11.9121 9.72273 11.7519 9.91795 11.6573 10.1464C11.5627 10.3748 11.538 10.6261 11.5862 10.8686C11.6344 11.1111 11.7535 11.3338 11.9283 11.5086C12.1031 11.6834 12.3258 11.8025 12.5683 11.8507C12.8108 11.8989 13.0621 11.8742 13.2905 11.7796C13.5189 11.685 13.7142 11.5247 13.8515 11.3192C13.9889 11.1136 14.0622 10.8719 14.0622 10.6247C14.0622 10.2932 13.9305 9.97525 13.6961 9.74083C13.4616 9.50641 13.1437 9.37471 12.8122 9.37471ZM18.1434 11.42C17.9372 11.5144 17.7132 11.5636 17.4864 11.5646C17.3859 11.5642 17.2857 11.554 17.1872 11.5341V14.3747C17.1861 15.2861 16.8236 16.1598 16.1792 16.8042C15.5348 17.4487 14.661 17.8112 13.7497 17.8122H6.24967C5.3383 17.8112 4.46456 17.4487 3.82013 16.8042C3.1757 16.1598 2.8132 15.2861 2.81217 14.3747V11.5333C2.71321 11.5537 2.61242 11.5639 2.51139 11.5638C2.28515 11.5631 2.06166 11.5141 1.85592 11.42C1.5348 11.2789 1.27148 11.0324 1.10952 10.7213C0.947569 10.4102 0.896686 10.0531 0.965294 9.70909L2.24811 2.83409C2.28761 2.62488 2.36946 2.42595 2.48862 2.24951C2.60778 2.07307 2.76175 1.92285 2.94106 1.80806C3.12038 1.69327 3.32126 1.61634 3.53138 1.58199C3.74149 1.54764 3.95642 1.5566 4.16295 1.60831L4.19967 1.61846L8.26217 2.81143H11.7419L15.8044 1.61846L15.8411 1.60831C16.0478 1.55662 16.2629 1.54775 16.4731 1.58224C16.6834 1.61674 16.8843 1.69387 17.0637 1.8089C17.243 1.92393 17.397 2.07442 17.516 2.25112C17.635 2.42783 17.7167 2.62701 17.7559 2.83643L19.0387 9.71143C19.1064 10.0556 19.0546 10.4126 18.8918 10.7233C18.729 11.034 18.4649 11.2798 18.1434 11.42ZM13.4559 4.26143L16.9528 8.78252L15.9715 3.52237L13.4559 4.26143ZM3.04654 8.78252L6.54342 4.26143L4.02779 3.52237L3.04654 8.78252ZM15.3122 14.3747V9.72471L11.4145 4.68721H8.58483L4.68717 9.72471V14.3747C4.68717 14.7891 4.85179 15.1865 5.14481 15.4796C5.43784 15.7726 5.83527 15.9372 6.24967 15.9372H9.06217V15.3903L8.08717 14.4146C7.91105 14.2384 7.8121 13.9996 7.81211 13.7505C7.81211 13.5014 7.91105 13.2626 8.08717 13.0864C8.26329 12.9103 8.50216 12.8114 8.75123 12.8114C9.0003 12.8114 9.23917 12.9103 9.41529 13.0864L9.99967 13.6716L10.5864 13.0841C10.7625 12.908 11.0014 12.809 11.2504 12.809C11.4995 12.809 11.7384 12.908 11.9145 13.0841C12.0906 13.2602 12.1896 13.4991 12.1896 13.7481C12.1896 13.9972 12.0906 14.2361 11.9145 14.4122L10.9372 15.3903V15.9372H13.7497C14.1641 15.9372 14.5615 15.7726 14.8545 15.4796C15.1475 15.1865 15.3122 14.7891 15.3122 14.3747Z" fill="#D6D6D6"></path>
</svg>
