
<svg version="1.0" xmlns="http://www.w3.org/2000/svg"
 width="800.000000pt" height="800.000000pt" viewBox="0 0 800.000000 800.000000"
 preserveAspectRatio="xMidYMid meet">

<g transform="translate(0.000000,800.000000) scale(0.100000,-0.100000)"
fill="#fff" stroke="none">
<path d="M3400 6953 c-19 -2 -84 -10 -144 -19 -60 -8 -179 -24 -265 -34 -549
-67 -587 -74 -657 -129 -21 -17 -113 -125 -205 -243 -15 -18 -131 -161 -259
-318 -127 -157 -243 -304 -257 -328 -34 -57 -39 -142 -19 -297 8 -66 22 -174
31 -240 8 -66 24 -187 35 -270 11 -82 31 -235 45 -340 14 -104 34 -257 45
-340 11 -82 27 -206 36 -275 9 -69 27 -208 40 -310 13 -102 33 -252 44 -335
29 -226 67 -518 95 -725 13 -102 35 -273 49 -380 14 -107 35 -265 46 -350 11
-85 31 -238 45 -340 13 -102 31 -238 40 -303 24 -175 59 -253 136 -296 54 -31
116 -35 254 -17 113 15 226 29 698 91 105 14 260 34 342 45 83 11 238 31 345
45 107 14 263 34 345 45 199 25 506 65 740 96 105 14 261 34 348 45 193 24
247 43 309 106 105 107 691 830 715 881 30 64 33 160 9 342 -9 63 -27 203 -41
310 -14 107 -37 281 -50 385 -14 105 -34 258 -45 340 -11 83 -30 236 -44 340
-14 105 -36 279 -50 387 -41 320 -58 376 -135 441 -60 50 -115 53 -353 23
-715 -91 -763 -99 -832 -133 -59 -28 -106 -84 -646 -755 -52 -65 -98 -114
-102 -110 -4 4 -19 99 -33 212 -15 113 -35 270 -45 350 -11 80 -31 235 -45
345 -36 270 -70 528 -94 715 -50 388 -72 556 -91 700 -49 379 -62 453 -91 516
-52 112 -125 144 -289 127z m154 -87 c77 -32 106 -116 140 -401 9 -71 27 -215
41 -320 14 -104 36 -275 50 -380 13 -104 33 -257 44 -340 11 -82 31 -240 46
-350 14 -110 37 -285 51 -390 14 -104 33 -255 44 -335 10 -80 30 -235 45 -345
14 -110 37 -284 50 -388 34 -262 33 -260 59 -254 11 3 75 12 141 21 304 40
505 66 565 72 36 4 70 10 76 15 10 8 0 104 -55 524 -93 710 -88 648 -64 710
14 39 28 55 63 77 48 28 64 31 520 92 102 13 257 34 346 46 188 25 219 21 276
-37 49 -50 65 -100 83 -257 8 -72 17 -142 20 -156 3 -14 17 -115 31 -225 14
-110 34 -265 44 -345 11 -80 30 -230 44 -335 14 -104 37 -280 51 -390 15 -110
35 -267 47 -350 11 -82 22 -191 25 -241 5 -78 2 -96 -16 -131 -19 -39 -56 -72
-92 -86 -20 -7 -386 -57 -814 -112 -66 -9 -187 -24 -270 -35 -82 -11 -204 -26
-270 -35 -66 -8 -187 -24 -270 -35 -82 -11 -256 -34 -385 -50 -129 -17 -300
-39 -380 -50 -290 -38 -458 -60 -585 -77 -161 -22 -219 -22 -268 2 -74 35 -91
99 -152 585 -8 69 -27 211 -40 315 -14 105 -34 258 -45 340 -21 164 -58 446
-96 735 -13 102 -35 271 -49 375 -27 209 -52 400 -90 690 -14 105 -36 276 -50
380 -13 105 -33 258 -44 340 -11 83 -31 238 -45 345 -14 107 -33 249 -42 315
-19 145 -15 251 12 289 10 15 40 38 65 51 47 24 59 26 529 85 85 11 207 26
270 34 63 9 129 17 145 19 72 9 168 6 199 -7z"/>
<path d="M3017 6223 c-3 -4 6 -91 19 -193 14 -102 35 -268 49 -370 13 -102 35
-273 49 -380 14 -107 35 -265 46 -350 39 -295 69 -526 94 -720 14 -107 35
-265 46 -350 59 -448 72 -547 90 -685 59 -463 72 -551 79 -558 4 -4 41 -3 82
3 41 6 160 22 264 36 105 13 258 33 340 44 83 11 204 26 270 35 66 8 188 24
270 35 634 84 823 109 900 118 51 6 60 10 59 27 -1 24 -28 239 -54 430 -10 77
-31 230 -45 340 -14 110 -35 263 -45 340 -11 77 -22 166 -26 198 -6 58 -7 58
-38 55 -39 -4 -46 81 49 -643 35 -266 75 -574 82 -626 7 -56 29 -49 -252 -85
-271 -35 -540 -69 -720 -93 -295 -39 -542 -71 -660 -86 -66 -8 -187 -24 -268
-36 -82 -11 -150 -19 -152 -17 -5 5 -30 172 -55 368 -10 85 -31 243 -45 350
-14 107 -34 263 -45 345 -11 83 -31 236 -44 340 -43 322 -76 573 -96 730 -18
140 -30 227 -95 728 -14 105 -34 262 -45 347 -43 328 -42 325 -72 328 -14 2
-28 0 -31 -5z"/>
</g>
</svg>
