<svg width="20" height="20" viewBox="0 0 20 20" fill="none" xmlns="http://www.w3.org/2000/svg">
<path d="M18.3596 11.2899L13.9947 3.80084C13.9908 3.79303 13.9863 3.78546 13.9815 3.77819C13.5609 3.10055 12.9744 2.54142 12.2775 2.1537C11.5805 1.76599 10.7962 1.5625 9.99865 1.5625C9.20112 1.5625 8.41677 1.76599 7.71983 2.1537C7.02289 2.54142 6.43639 3.10055 6.01584 3.77819C6.01095 3.78546 6.00652 3.79303 6.00255 3.80084L1.64084 11.2899C1.20286 12.0002 0.962454 12.8146 0.944451 13.6489C0.926447 14.4832 1.1315 15.3072 1.53843 16.0358C1.94536 16.7644 2.5394 17.3711 3.25922 17.7933C3.97904 18.2155 4.79852 18.4379 5.63302 18.4376H14.3674C15.2019 18.4379 16.0214 18.2155 16.7412 17.7933C17.461 17.3711 18.0551 16.7644 18.462 16.0358C18.8689 15.3072 19.074 14.4832 19.056 13.6489C19.038 12.8146 18.7976 12.0002 18.3596 11.2899ZM12.1877 16.5626H7.81271V13.4376H12.1877V16.5626ZM16.8252 15.1172C16.5844 15.5578 16.2287 15.9249 15.7959 16.1794C15.3631 16.4339 14.8695 16.5663 14.3674 16.5626H14.0627V13.1251C14.0627 12.7107 13.8981 12.3132 13.6051 12.0202C13.312 11.7272 12.9146 11.5626 12.5002 11.5626H7.50021C7.08581 11.5626 6.68838 11.7272 6.39536 12.0202C6.10233 12.3132 5.93771 12.7107 5.93771 13.1251V16.5626H5.63302C5.13159 16.5626 4.63926 16.4286 4.20704 16.1744C3.77482 15.9202 3.41841 15.555 3.17475 15.1168C2.93108 14.6785 2.80901 14.1831 2.82118 13.6818C2.83335 13.1805 2.97932 12.6916 3.24396 12.2657L3.25724 12.2438L7.61818 4.75631C7.87122 4.35276 8.2226 4.02009 8.63938 3.78949C9.05616 3.55889 9.52467 3.43792 10.001 3.43792C10.4773 3.43792 10.9458 3.55889 11.3626 3.78949C11.7794 4.02009 12.1308 4.35276 12.3838 4.75631L16.7447 12.2446L16.758 12.2665C17.0255 12.6914 17.1729 13.1808 17.1846 13.6827C17.1963 14.1846 17.0719 14.6804 16.8244 15.1172H16.8252Z" fill="#D6D6D6"></path>
</svg>
