<svg width="20" height="20" viewBox="0 0 20 20" fill="none" xmlns="http://www.w3.org/2000/svg">
<path d="M16.25 11.25H10.9375V7.68121C11.7357 7.45493 12.4252 6.94757 12.8787 6.25276C13.3321 5.55794 13.519 4.72256 13.4048 3.90077C13.2905 3.07897 12.8829 2.32622 12.2572 1.78142C11.6314 1.23661 10.8297 0.936523 10 0.936523C9.1703 0.936523 8.3686 1.23661 7.74284 1.78142C7.11707 2.32622 6.70946 3.07897 6.59523 3.90077C6.48101 4.72256 6.66786 5.55794 7.12133 6.25276C7.57479 6.94757 8.26426 7.45493 9.0625 7.68121V11.25H3.75C3.3356 11.25 2.93817 11.4146 2.64515 11.7076C2.35212 12.0006 2.1875 12.3981 2.1875 12.8125V16.25C2.1875 16.6644 2.35212 17.0618 2.64515 17.3548C2.93817 17.6478 3.3356 17.8125 3.75 17.8125H16.25C16.6644 17.8125 17.0618 17.6478 17.3549 17.3548C17.6479 17.0618 17.8125 16.6644 17.8125 16.25V12.8125C17.8125 12.3981 17.6479 12.0006 17.3549 11.7076C17.0618 11.4146 16.6644 11.25 16.25 11.25ZM8.4375 4.37496C8.4375 4.06593 8.52914 3.76384 8.70083 3.50688C8.87252 3.24993 9.11655 3.04966 9.40206 2.9314C9.68757 2.81314 10.0017 2.7822 10.3048 2.84249C10.6079 2.90277 10.8863 3.05159 11.1049 3.27011C11.3234 3.48863 11.4722 3.76704 11.5325 4.07013C11.5928 4.37323 11.5618 4.6874 11.4436 4.9729C11.3253 5.25841 11.125 5.50244 10.8681 5.67413C10.6111 5.84582 10.309 5.93746 10 5.93746C9.5856 5.93746 9.18817 5.77284 8.89515 5.47982C8.60212 5.18679 8.4375 4.78936 8.4375 4.37496ZM15.9375 15.9375H4.0625V13.125H15.9375V15.9375ZM13.4375 8.12496H15.9375C16.1861 8.12496 16.4246 8.22373 16.6004 8.39955C16.7762 8.57536 16.875 8.81382 16.875 9.06246C16.875 9.3111 16.7762 9.54956 16.6004 9.72537C16.4246 9.90119 16.1861 9.99996 15.9375 9.99996H13.4375C13.1889 9.99996 12.9504 9.90119 12.7746 9.72537C12.5988 9.54956 12.5 9.3111 12.5 9.06246C12.5 8.81382 12.5988 8.57536 12.7746 8.39955C12.9504 8.22373 13.1889 8.12496 13.4375 8.12496Z" fill="#D6D6D6"></path>
</svg>
